<?xml version="1.0" standalone="no"?>
<!DOCTYPE svg PUBLIC "-//W3C//DTD SVG 20010904//EN"
 "http://www.w3.org/TR/2001/REC-SVG-20010904/DTD/svg10.dtd">
<svg version="1.0" xmlns="http://www.w3.org/2000/svg"
 width="1809.000000pt" height="1809.000000pt" viewBox="0 0 1809.000000 1809.000000"
 preserveAspectRatio="xMidYMid meet">
<metadata>
Created by potrace 1.11, written by Peter Selinger 2001-2013
</metadata>
<g transform="translate(0.000000,1809.000000) scale(0.100000,-0.100000)"
fill="#000000" stroke="none">
<path d="M8676 18079 c-1830 -71 -3587 -698 -5061 -1804 -367 -276 -603 -481
-955 -834 -362 -362 -565 -596 -856 -983 -602 -803 -1049 -1664 -1362 -2628
-593 -1820 -583 -3830 28 -5650 300 -894 742 -1747 1296 -2496 186 -253 541
-680 663 -799 l51 -49 0 278 0 279 -124 306 c-68 168 -127 322 -131 341 -4 23
7 120 30 265 76 484 145 776 216 923 54 111 63 110 145 -27 34 -57 67 -108 73
-114 8 -8 11 74 11 295 l0 305 55 18 c43 13 55 21 55 37 0 22 -49 206 -107
403 -78 266 -202 540 -332 736 -38 57 -120 165 -181 239 -211 255 -297 400
-369 623 -86 267 -104 426 -121 1112 -18 756 24 1061 217 1550 98 247 191 410
326 567 264 307 667 492 1146 527 61 4 113 10 116 13 3 3 -19 56 -49 119 -280
589 -289 1218 -26 1764 341 706 905 1376 1485 1765 294 197 676 377 1060 500
570 182 1281 278 1850 250 517 -26 808 -88 1590 -342 553 -179 833 -257 1230
-338 696 -142 1302 -197 2075 -187 521 7 840 30 1313 94 145 20 203 24 215 17
9 -6 36 -58 60 -115 219 -525 378 -876 598 -1319 250 -505 370 -723 798 -1450
125 -212 260 -450 300 -530 209 -413 335 -853 376 -1308 16 -174 8 -623 -14
-792 -45 -341 -120 -598 -252 -865 -104 -211 -200 -349 -439 -630 -520 -611
-904 -1398 -1096 -2244 -37 -167 -42 -156 71 -185 55 -14 73 -24 79 -40 5 -16
7 -606 2 -684 -1 -8 -29 -44 -64 -80 -87 -92 -156 -180 -161 -205 -3 -12 -10
-202 -16 -422 -16 -601 -29 -827 -120 -2155 -11 -163 -13 -390 -4 -390 18 0
353 263 554 434 724 617 1392 1407 1876 2216 1118 1869 1525 4043 1159 6195
-214 1258 -725 2520 -1443 3565 -317 461 -654 863 -1082 1290 -714 714 -1457
1253 -2330 1689 -1382 690 -2875 1011 -4424 950z"/>
<path d="M6870 14380 c-803 -48 -1432 -430 -1779 -1081 -140 -264 -228 -592
-237 -884 l-5 -140 49 145 c93 277 190 480 332 692 117 176 201 279 340 418
464 464 1074 741 1795 816 61 6 66 8 40 15 -27 8 -358 31 -395 27 -8 0 -71 -4
-140 -8z"/>
<path d="M13593 14170 c-206 -460 -602 -1272 -886 -1815 -213 -408 -657 -1222
-691 -1264 -16 -22 5 -8 99 63 456 345 910 910 1135 1414 150 337 294 833 355
1227 20 134 30 341 18 385 l-10 35 -20 -45z"/>
<path d="M5257 14047 c-589 -300 -947 -731 -1106 -1327 -53 -198 -72 -337 -78
-550 -10 -362 51 -642 204 -942 141 -278 397 -582 670 -798 45 -35 79 -67 75
-71 -4 -3 -56 -16 -116 -28 -61 -13 -139 -34 -174 -47 -146 -55 -278 -173
-351 -314 -50 -96 -58 -126 -127 -485 -247 -1297 -307 -1605 -329 -1680 -14
-47 -77 -205 -140 -351 -301 -692 -555 -1343 -555 -1420 0 -21 16 -17 40 9 53
55 260 418 505 882 81 154 191 363 245 465 54 102 108 214 119 250 11 36 117
436 236 890 119 454 227 856 240 893 34 99 80 171 161 253 110 111 180 141
644 270 212 59 410 113 440 120 81 20 223 18 311 -5 41 -11 477 -166 969 -346
1139 -416 1109 -407 1235 -412 110 -6 113 -5 1440 154 539 65 836 96 910 97
l110 0 635 -212 c1053 -352 1044 -348 1160 -450 57 -50 130 -155 160 -232 26
-67 139 -478 259 -948 108 -420 142 -513 246 -667 71 -106 160 -272 375 -699
128 -254 205 -396 222 -409 14 -10 36 -17 50 -15 l25 3 -54 170 c-193 606
-314 957 -400 1160 -82 193 -79 183 -283 962 -163 624 -194 733 -229 800 -51
98 -130 187 -218 246 -37 25 -356 202 -708 393 -352 191 -661 359 -686 373
l-47 26 172 85 c952 473 1650 1215 2061 2191 156 370 291 902 325 1275 6 66
15 158 20 205 6 47 9 110 9 140 l-1 54 -9 -45 c-4 -25 -18 -103 -30 -175 -28
-171 -104 -470 -169 -670 -456 -1396 -1345 -2327 -2651 -2773 -96 -33 -190
-63 -209 -66 l-35 -7 35 22 c19 13 78 50 130 83 585 374 1014 1035 1114 1715
9 58 14 107 11 109 -2 2 -29 -47 -61 -109 -212 -424 -514 -828 -846 -1130
-594 -540 -1269 -870 -2088 -1018 -663 -121 -729 -131 -826 -131 -125 0 -162
9 -534 130 -168 54 -345 111 -395 125 -108 33 -143 50 -260 128 -573 385 -921
815 -1106 1367 -29 85 -54 157 -56 159 -12 16 -114 -183 -148 -289 -22 -68
-28 -110 -32 -216 -11 -266 59 -450 245 -645 77 -82 84 -91 57 -85 -16 4 -54
12 -84 17 -46 7 -70 21 -165 93 -351 267 -501 467 -558 746 -17 78 -19 121
-15 245 4 130 9 168 40 286 66 251 161 475 322 759 58 101 103 186 100 188 -2
3 -69 -60 -147 -139 -236 -238 -374 -460 -452 -731 -72 -250 -74 -563 -5 -771
78 -238 253 -454 492 -610 113 -74 118 -85 42 -86 -36 -1 -270 111 -402 192
-199 124 -413 315 -534 477 -167 224 -282 500 -324 775 -20 133 -20 381 0 520
60 413 248 836 520 1170 89 110 286 305 418 415 138 115 136 115 -56 17z"/>
<path d="M14312 13378 c9 -57 22 -186 29 -288 20 -297 -8 -581 -86 -875 -136
-520 -364 -925 -720 -1281 -173 -173 -264 -249 -460 -379 -173 -115 -325 -199
-481 -265 -65 -28 -130 -55 -143 -61 -14 -6 -20 -14 -15 -18 5 -5 191 -130
414 -278 223 -149 410 -276 416 -284 7 -8 17 -41 24 -74 32 -163 141 -662 148
-678 15 -36 279 387 437 698 527 1039 705 2193 525 3400 -24 159 -91 485 -100
485 -3 0 2 -46 12 -102z"/>
<path d="M14963 12313 c388 -644 583 -1130 663 -1653 26 -165 26 -533 1 -685
-40 -236 -107 -443 -212 -659 -55 -113 -140 -258 -347 -591 -463 -747 -693
-1383 -773 -2135 -16 -154 -33 -659 -21 -649 4 4 23 78 41 165 155 716 443
1419 873 2129 120 197 228 362 427 650 346 500 462 725 525 1022 28 129 37
384 20 531 -56 483 -335 1015 -824 1572 -121 137 -372 396 -438 452 l-48 40
113 -189z"/>
<path d="M3570 11392 c0 -24 79 -194 125 -268 139 -222 370 -439 613 -571 110
-61 261 -118 379 -143 149 -32 161 -25 61 34 -139 82 -367 234 -483 321 -172
129 -274 220 -492 438 -112 110 -203 196 -203 189z"/>
<path d="M3370 10680 c-99 -25 -178 -60 -275 -125 -472 -314 -735 -884 -735
-1590 0 -221 38 -786 71 -1055 60 -499 202 -1135 297 -1330 50 -103 51 -78 8
222 -105 725 -154 1561 -112 1907 54 444 212 928 393 1200 32 47 105 134 163
192 197 198 387 285 736 338 175 27 201 39 183 88 -19 53 -169 124 -332 157
-106 22 -300 20 -397 -4z"/>
<path d="M3851 10126 c0 -5 -19 -117 -41 -250 -166 -987 -378 -1907 -666
-2876 -84 -285 -82 -272 -49 -235 14 17 62 84 107 150 382 560 616 1190 704
1895 21 173 30 638 15 826 -14 171 -65 530 -70 490z"/>
<path d="M5095 7146 c-207 -40 -417 -131 -578 -252 -304 -228 -647 -625 -647
-747 0 -60 71 -74 183 -36 100 33 183 85 277 175 110 103 186 153 294 193 132
47 241 65 406 64 214 0 452 -37 965 -152 99 -22 270 -56 380 -76 267 -48 297
-55 835 -207 276 -77 484 -131 511 -131 122 -2 246 142 271 314 15 99 -1 168
-53 224 -48 52 -86 72 -329 176 -107 46 -240 107 -295 136 -276 147 -339 167
-550 183 -343 26 -406 32 -480 46 -421 77 -576 94 -880 99 -175 3 -259 1 -310
-9z"/>
<path d="M11850 7023 c-147 -10 -291 -28 -495 -63 -265 -45 -470 -70 -570 -70
-236 0 -402 -49 -650 -190 -38 -22 -181 -87 -317 -146 -333 -144 -367 -175
-368 -335 0 -89 17 -154 62 -229 42 -70 59 -72 204 -25 155 50 405 112 568
139 180 31 314 45 551 56 202 10 194 8 770 135 637 139 920 154 1193 61 121
-42 189 -84 303 -192 125 -118 144 -127 316 -149 156 -19 153 -19 153 8 0 76
-148 276 -360 487 -305 306 -555 451 -864 505 -81 14 -351 18 -496 8z"/>
<path d="M6085 6074 c-33 -2 -231 -13 -440 -24 -444 -24 -1259 -76 -1425 -90
-282 -25 -553 -74 -855 -156 -244 -67 -540 -156 -562 -170 l-23 -14 0 -299 0
-299 65 -72 c184 -205 295 -396 373 -640 29 -91 40 -141 78 -350 37 -209 135
-445 265 -640 88 -133 265 -309 396 -394 274 -179 601 -266 998 -266 236 0
876 42 1230 81 303 33 431 60 624 131 441 163 749 439 951 853 71 145 110 255
155 436 70 278 144 448 260 599 36 47 86 115 111 152 68 103 99 114 257 92
110 -16 271 -15 479 2 l77 6 24 -48 c14 -27 53 -85 87 -129 186 -240 244 -362
314 -671 33 -148 81 -277 172 -459 209 -421 514 -688 966 -843 263 -91 462
-119 1198 -172 888 -62 1256 -9 1629 238 107 71 262 219 350 336 176 233 268
457 326 798 60 355 188 619 429 886 l66 73 0 299 0 300 -22 14 c-13 8 -147 51
-298 95 -587 172 -855 218 -1470 255 -52 4 -266 17 -475 31 -1571 102 -1924
89 -2548 -91 -261 -76 -372 -120 -482 -193 -22 -15 -110 -55 -197 -89 -288
-115 -357 -118 -691 -33 -128 33 -259 65 -292 71 -40 8 -74 24 -105 47 -157
120 -648 265 -1115 330 -105 14 -724 26 -880 17z m666 -124 c560 -44 913 -208
1114 -518 85 -132 87 -157 49 -527 -74 -721 -272 -1261 -583 -1587 -197 -208
-382 -305 -775 -408 -316 -83 -506 -114 -793 -132 -311 -18 -718 11 -1075 77
-198 36 -514 118 -589 153 -252 114 -484 403 -604 752 -53 154 -171 629 -199
803 -14 84 -28 197 -31 252 -12 176 31 509 74 578 32 52 170 181 248 231 117
76 258 128 418 155 102 18 423 59 580 75 170 18 1029 82 1265 95 228 12 746
13 901 1z m4809 0 c179 -9 388 -24 950 -66 828 -61 1168 -130 1374 -278 71
-51 206 -188 228 -231 19 -36 54 -253 63 -385 7 -105 -7 -295 -31 -440 -23
-136 -157 -668 -200 -791 -75 -219 -176 -390 -314 -533 -172 -179 -254 -224
-546 -297 -330 -83 -546 -117 -899 -144 -322 -24 -539 -18 -830 24 -306 45
-723 161 -909 253 -284 140 -491 377 -654 748 -136 308 -200 571 -257 1045
-40 332 -41 371 -17 452 47 154 194 319 388 436 135 81 385 162 579 186 229
30 718 39 1075 21z m-8454 -622 c25 -12 44 -48 44 -84 0 -39 -51 -84 -94 -84
-79 0 -121 96 -67 154 33 35 65 39 117 14z m11366 -15 c26 -23 32 -67 14 -102
-31 -60 -99 -70 -147 -22 -88 88 40 208 133 124z"/>
<path d="M2816 4834 c-3 -9 -6 -44 -6 -79 0 -60 -25 -228 -36 -247 -4 -5 -48
53 -100 130 -51 77 -98 143 -103 147 -14 8 -110 -34 -120 -54 -5 -9 -12 -83
-16 -166 -8 -186 -25 -274 -76 -392 -51 -122 -51 -151 5 -272 190 -412 216
-481 241 -647 17 -116 20 -359 4 -470 l-11 -78 142 -140 c110 -109 144 -137
151 -125 5 8 7 25 4 39 -7 36 -42 492 -56 725 -16 273 -16 686 0 815 14 118
45 275 90 460 46 186 48 177 -58 323 -38 51 -46 55 -55 31z m-100 -531 c-20
-67 -55 -472 -57 -673 l-1 -85 -34 125 c-30 109 -36 150 -45 318 l-12 194 69
69 c70 70 90 83 80 52z"/>
<path d="M7600 1789 c-92 -41 -148 -121 -157 -221 -14 -144 89 -241 220 -209
29 7 104 14 167 15 137 2 168 14 247 99 l51 56 110 -45 c389 -158 803 -142
1171 46 22 11 46 17 53 14 7 -2 25 -25 40 -49 33 -55 103 -107 190 -141 l66
-27 74 31 c40 17 116 42 168 57 140 40 155 62 100 148 -57 91 -195 166 -320
174 -113 8 -175 -9 -346 -98 -262 -136 -455 -186 -679 -176 -190 9 -376 65
-560 167 -150 84 -287 148 -351 164 -87 23 -188 20 -244 -5z"/>
</g>
</svg>
