<?xml version="1.0" encoding="utf-8"?>
<!-- Generator: Adobe Illustrator 19.0.0, SVG Export Plug-In . SVG Version: 6.00 Build 0)  -->
<svg version="1.1" id="Capa_1" xmlns="http://www.w3.org/2000/svg" xmlns:xlink="http://www.w3.org/1999/xlink" x="0px" y="0px"
	 viewBox="-302 304 94 94" style="enable-background:new -302 304 94 94;" xml:space="preserve">
<style type="text/css">
	.st0{fill:#000;stroke:#000;stroke-miterlimit:10;}
</style>
<g>
	<g>
		<path class="st0" d="M-251.3,352c-1.1-0.8-2.3-1.5-3.7-1.9c-2.1-0.5-4-0.2-5.5,1.5c-1.1,1.3-1.7,2.9-1.7,4.7c0,0.2,0,0.4,0.1,0.7
			c0.2,2.6,1.9,4.5,4.4,5c1.4,0.3,2.7,0.1,4-0.4c2.8-1.1,4.9-3,6.8-5.2c0.1-0.2,0.1-0.2,0-0.4C-248.3,354.6-249.7,353.1-251.3,352z"
			/>
		<path class="st0" d="M-229.2,349.9c-1.7,0.2-3.2,1.1-4.5,2.1c-1.5,1.2-2.8,2.6-4.1,4c-0.2,0.2-0.1,0.3,0,0.4c0.9,1,1.9,2,2.9,2.9
			c1.8,1.4,3.7,2.5,6.1,2.8c2.7,0.2,4.8-1,5.7-3.4c0.3-0.8,0.5-1.7,0.5-2.7c0-0.3,0-0.6-0.1-1C-223.1,351.6-225.9,349.5-229.2,349.9
			z"/>
		<path class="st0" d="M-213,304h-84c-2.8,0-5,2.2-5,5v84c0,2.8,2.2,5,5,5h84c2.8,0,5-2.2,5-5v-84C-208,306.2-210.2,304-213,304z
			 M-216.7,361.3c-1.9,5.2-6.2,8.2-11.8,8.2c-3.4,0-6.3-1.4-8.9-3.4c-1.7-1.3-3.2-2.9-4.6-4.5c-0.2-0.3-0.4-0.3-0.6,0
			c-1.5,1.5-2.8,3.1-4.5,4.4c-2.1,1.7-4.4,2.9-7,3.3c-4.7,0.6-8.8-0.6-12-4.3c-0.7-0.8-1.3-1.8-1.7-2.8c-0.1-0.1-0.1-0.3-0.2-0.4
			c-0.6,1.3-1.4,2.6-2.4,3.7c-2.5,2.7-5.7,4.1-9.4,4.3c-2.7,0.1-5.3-0.2-7.7-1.4c-4.1-1.9-6.3-5.2-6.6-9.7c0-0.3,0.1-0.4,0.4-0.4
			c2.2,0,4.4,0,6.6,0c0.3,0,0.4,0.1,0.5,0.4c0.4,2.5,1.8,4.3,4.3,4.9c3.5,0.9,6.8-1.1,7.7-4.8c0.6-2.4,0.4-4.8-1.3-6.8
			c-1.1-1.4-2.5-2-4.3-2.1c-2.5-0.2-4.5,0.6-6,2.7c-0.1,0.2-0.3,0.2-0.5,0.2c-2,0-4,0-6,0c-0.3,0-0.4-0.1-0.4-0.4
			c1-5.7,2.1-11.4,3.1-17.2c0.1-0.8,0.3-1.6,0.4-2.4c0-0.3,0.1-0.4,0.4-0.4c6.6,0,13.2,0,19.8,0c0.3,0,0.4,0.1,0.4,0.4
			c0,1.8,0,3.5,0,5.3c0,0.4-0.1,0.5-0.5,0.5c-4.7,0-9.4,0-14.2,0c-0.4,0-0.6,0.1-0.6,0.5c-0.4,2.5-0.9,5-1.3,7.5
			c0,0.1-0.1,0.3,0,0.3c0.1,0.1,0.2-0.1,0.3-0.1c2.2-2.1,4.8-2.7,7.7-2.6c2.8,0.1,5.2,1.2,7.2,3.2c0.8,0.8,1.5,1.8,2,2.8
			c0.1,0.1,0.1,0.2,0.2,0.4c0.6-1.5,1.2-2.8,2.2-3.9c2.1-2.4,4.8-3.7,8.1-4c4.5-0.4,8.3,1.3,11.5,4.3c1.4,1.2,2.5,2.6,3.7,4
			c0.3,0.3,0.4,0.3,0.6,0c1.5-1.8,3-3.6,4.9-5.1c2.1-1.7,4.5-2.9,7.2-3.2c6.8-0.8,12.4,2.9,13.9,9.9
			C-215.5,355.5-215.7,358.4-216.7,361.3z"/>
	</g>
</g>
</svg>
