<?xml version="1.0" encoding="utf-8"?>
<!-- Generator: Adobe Illustrator 19.0.0, SVG Export Plug-In . SVG Version: 6.00 Build 0)  -->
<svg version="1.1" id="Capa_1" xmlns="http://www.w3.org/2000/svg" xmlns:xlink="http://www.w3.org/1999/xlink" x="0px" y="0px"
	 viewBox="-200 202.6 297.4 297.4" style="enable-background:new -200 202.6 297.4 297.4;" xml:space="preserve">
<style type="text/css">
	.st0{fill:#000;stroke:#000;stroke-width:1.0918;stroke-miterlimit:10;}
</style>
<g>
	<path class="st0" d="M-3.1,279.9c-1.4-1.1-2.2-2.6-2.2-4.2v-73.1H-200V500H97.4V281.6h-95C0.4,281.6-1.6,281-3.1,279.9z
		 M-102.7,224.4c17.7,0,32,11,32,24.6s-14.4,24.6-32,24.6s-32-11-32-24.6C-134.9,235.4-120.5,224.4-102.7,224.4z M-146.3,302.4
		c0-13.3,14-24.1,31.2-24.1h24.7c17.2,0,31.2,10.8,31.2,24.1v10.4c0,3.2-3.4,5.9-7.7,5.9c-4.3,0-7.7-2.7-7.7-5.9v-10.4
		c0-6.7-7.1-12.2-15.9-12.2H-115c-8.7,0-15.9,5.5-15.9,12.2v10.4c0,3.2-3.4,5.9-7.7,5.9c-4.3,0-7.7-2.7-7.7-5.9V302.4z M36,454.1
		h-174.6c-4.3,0-7.7-2.7-7.7-5.9s3.4-5.9,7.7-5.9H36c4.3,0,7.7,2.7,7.7,5.9S40.2,454.1,36,454.1z M36,410.3h-174.6
		c-4.3,0-7.7-2.7-7.7-5.9s3.4-5.9,7.7-5.9H36c4.3,0,7.7,2.7,7.7,5.9S40.2,410.3,36,410.3z M43.7,360.5c0,3.2-3.4,5.9-7.7,5.9h-174.6
		c-4.3,0-7.7-2.7-7.7-5.9s3.4-5.9,7.7-5.9H36C40.2,354.5,43.7,357.2,43.7,360.5z"/>
	<polygon class="st0" points="86.5,269.8 10.1,211 10.1,269.8 	"/>
	<path class="st0" d="M-102.7,261.9c9.2,0,16.7-5.7,16.7-12.7s-7.5-12.7-16.7-12.7c-9.2,0-16.7,5.7-16.7,12.7
		C-119.4,256.1-112,261.9-102.7,261.9z"/>
</g>
</svg>
