<?xml version="1.0" encoding="utf-8"?>
<!-- Generator: Adobe Illustrator 19.0.0, SVG Export Plug-In . SVG Version: 6.00 Build 0)  -->
<svg version="1.1" id="Capa_1" xmlns="http://www.w3.org/2000/svg" xmlns:xlink="http://www.w3.org/1999/xlink" x="0px" y="0px"
	 viewBox="-302 304 94 94" style="enable-background:new -302 304 94 94;" xml:space="preserve">
<style type="text/css">
	.st0{fill:#000;}
</style>
<g>
	<g>
		<path class="st0" d="M-233.2,345.8c-7.3,0-8.3,7.3-8.3,7.3h15.6C-226,353.1-225.9,345.8-233.2,345.8z"/>
		<path class="st0" d="M-268.5,353.1h-13.8v12.7h13.2c2-0.1,5.6-0.7,5.6-6.2C-263.6,353-268.5,353.1-268.5,353.1z"/>
		<path class="st0" d="M-265.2,340.2c0-4.9-3.4-4.9-3.4-4.9h-1.8h-12v10.6h12.9C-267.2,345.8-265.2,345.1-265.2,340.2z"/>
		<path class="st0" d="M-213,304h-84c-2.8,0-5,2.2-5,5v84c0,2.8,2.2,5,5,5h84c2.8,0,5-2.2,5-5v-84C-208,306.2-210.2,304-213,304z
			 M-243.6,329.6h19.6v5.8h-19.6V329.6z M-253.5,360.2c0,14.5-15.1,14-15.1,14h-13.8h-0.4h-10.5v-47.4h10.5h0.4h13.8
			c7.5,0,13.4,4.1,13.4,12.6c0,8.5-7.2,9-7.2,9C-252.8,348.4-253.5,360.2-253.5,360.2z M-216.9,359.4h-24.6c0,8.8,8.3,8.2,8.3,8.2
			c7.9,0,7.6-5.1,7.6-5.1h8.3c0,13.5-16.2,12.6-16.2,12.6c-19.5,0-18.2-18.1-18.2-18.1s0-18.2,18.2-18.2
			C-214.2,338.9-216.9,359.4-216.9,359.4z"/>
	</g>
</g>
</svg>
