<?xml version="1.0" encoding="utf-8"?>
<!-- Generator: Adobe Illustrator 19.0.0, SVG Export Plug-In . SVG Version: 6.00 Build 0)  -->
<svg version="1.1" id="Layer_1" xmlns="http://www.w3.org/2000/svg" xmlns:xlink="http://www.w3.org/1999/xlink" x="0px" y="0px"
	 viewBox="-122 123 455 455" style="enable-background:new -122 123 455 455;" xml:space="preserve">
<style type="text/css">
	.st0{fill:#000;}
</style>
<g>
	<path class="st0" d="M124.4,327.4v-0.7c-0.1,0.2-0.3,0.4-0.4,0.7H124.4z"/>
	<path class="st0" d="M-122,123v455h455V123H-122z M19.5,501H-48V297.9h67.5V501z M-14.2,270.2h-0.4c-22.6,0-37.3-15.6-37.3-35.1
		c0-19.9,15.1-35.1,38.2-35.1c23.1,0,37.3,15.2,37.8,35.1C24,254.6,9.3,270.2-14.2,270.2z M263,501h-67.5V392.3
		c0-27.3-9.8-45.9-34.2-45.9c-18.7,0-29.8,12.5-34.6,24.7c-1.8,4.3-2.2,10.4-2.2,16.5V501H56.9c0,0,0.9-184,0-203.1h67.5v28.8
		c9-13.8,25-33.5,60.9-33.5c44.4,0,77.7,29,77.7,91.4V501z"/>
</g>
</svg>
