<?xml version="1.0" encoding="utf-8"?>
<!-- Generator: Adobe Illustrator 19.0.0, SVG Export Plug-In . SVG Version: 6.00 Build 0)  -->
<svg version="1.1" id="Capa_1" xmlns="http://www.w3.org/2000/svg" xmlns:xlink="http://www.w3.org/1999/xlink" x="0px" y="0px"
	 viewBox="-341 342.6 16.4 16.4" style="enable-background:new -341 342.6 16.4 16.4;" xml:space="preserve">
<style type="text/css">
	.st0{fill:#000;}
</style>
<g>
	<g>
		<path class="st0" d="M-324.6,348.7c0-0.3-0.2-0.5-0.5-0.5h-4.7v1.1h3.7l-2.4,2l-1.3-1v1.4l1,0.8c0.2,0.1,0.4,0.1,0.6,0l2.7-2.2
			v2.9h-4.2v1.1h4.7c0.3,0,0.5-0.2,0.5-0.5v-4.5c0,0,0,0,0,0c0,0,0,0,0,0C-324.6,349.1-324.6,348.7-324.6,348.7z"/>
		<path class="st0" d="M-335.9,353.1c0.7,0,1.1-0.9,1.1-2.3c0-1.1-0.3-2.3-1.1-2.3c-0.8,0-1.2,1.1-1.2,2.3
			C-337,352.1-336.6,353.1-335.9,353.1z"/>
		<path class="st0" d="M-341,357.6l10.2,0.7v-15.1l-10.2,0.9V357.6z M-335.8,346.9c1.7,0,2.9,1.6,2.9,3.8c0,2.7-1.5,4-3,4
			c-1.7,0-2.9-1.4-2.9-3.9C-338.9,348.4-337.7,346.9-335.8,346.9z"/>
	</g>
</g>
</svg>
