<?xml version="1.0" encoding="utf-8"?>
<!-- Generator: Adobe Illustrator 19.0.0, SVG Export Plug-In . SVG Version: 6.00 Build 0)  -->
<svg version="1.1" id="Capa_1" xmlns="http://www.w3.org/2000/svg" xmlns:xlink="http://www.w3.org/1999/xlink" x="0px" y="0px"
	 viewBox="-302 304 94 94" style="enable-background:new -302 304 94 94;" xml:space="preserve">
<style type="text/css">
	.st0{fill:#000;}
</style>
<g>
	<path class="st0" d="M-213,304h-84c-2.8,0-5,2.2-5,5v84c0,2.8,2.2,5,5,5h84c2.8,0,5-2.2,5-5v-84C-208,306.2-210.2,304-213,304z
		 M-292.8,363.2c0,0.2-0.2,0.3-0.3,0.3c-0.2,0-0.3-0.1-0.3-0.3l-0.6-4.3l0.6-4.3c0-0.2,0.2-0.3,0.3-0.3c0.2,0,0.3,0.1,0.3,0.3
		l0.7,4.3L-292.8,363.2z M-289.9,365.8c0,0.2-0.2,0.3-0.3,0.3c-0.2,0-0.3-0.1-0.3-0.3l-0.8-6.8l0.8-7c0-0.2,0.2-0.3,0.3-0.3
		c0.2,0,0.3,0.1,0.3,0.3l0.9,7L-289.9,365.8z M-286.8,367c0,0.2-0.2,0.4-0.4,0.4c-0.2,0-0.4-0.2-0.4-0.4l-0.7-8l0.7-8.3
		c0-0.2,0.2-0.4,0.4-0.4c0.2,0,0.4,0.2,0.4,0.4l0.8,8.3L-286.8,367z M-283.6,367.2c0,0.3-0.2,0.4-0.5,0.4c-0.2,0-0.4-0.2-0.5-0.4
		l-0.7-8.3l0.7-8.5c0-0.3,0.2-0.4,0.5-0.4c0.2,0,0.4,0.2,0.5,0.4l0.8,8.5L-283.6,367.2z M-280.4,367.3c0,0.3-0.2,0.5-0.5,0.5
		c-0.3,0-0.5-0.2-0.5-0.5l-0.6-8.3l0.6-7.9c0-0.3,0.2-0.5,0.5-0.5c0.3,0,0.5,0.2,0.5,0.5l0.7,7.9L-280.4,367.3z M-277.2,367.3
		L-277.2,367.3c0,0.3-0.3,0.6-0.6,0.6c-0.3,0-0.6-0.3-0.6-0.6l-0.6-8.3c0,0,0.6-12.9,0.6-12.9c0-0.3,0.3-0.6,0.6-0.6
		c0.3,0,0.6,0.3,0.6,0.6l0.7,12.9L-277.2,367.3z M-274.1,367.3L-274.1,367.3c0,0.4-0.3,0.6-0.7,0.6c-0.4,0-0.6-0.3-0.7-0.6l-0.6-8.3
		c0,0,0.6-15.8,0.6-15.8c0-0.4,0.3-0.7,0.7-0.7c0.4,0,0.6,0.3,0.7,0.7l0.6,15.8L-274.1,367.3z M-270.7,367.2L-270.7,367.2
		c0,0.4-0.3,0.7-0.7,0.7c-0.4,0-0.7-0.3-0.7-0.7l-0.5-8.2c0,0,0.5-17.2,0.5-17.2c0-0.4,0.3-0.7,0.7-0.7c0.4,0,0.7,0.3,0.7,0.7
		l0.6,17.2L-270.7,367.2z M-267.5,367.1c0,0.4-0.4,0.8-0.8,0.8c-0.4,0-0.8-0.3-0.8-0.8l-0.5-8.1l0.5-17.7c0-0.4,0.4-0.8,0.8-0.8
		c0.4,0,0.8,0.3,0.8,0.8l0.6,17.7L-267.5,367.1z M-264.2,367L-264.2,367c0,0.5-0.4,0.8-0.9,0.8c-0.5,0-0.8-0.4-0.9-0.8l-0.5-8.1
		l0.5-17.3c0-0.5,0.4-0.9,0.9-0.9c0.5,0,0.8,0.4,0.9,0.9l0.5,17.3L-264.2,367z M-260.8,367L-260.8,367c0,0.5-0.4,0.9-0.9,0.9
		c-0.5,0-0.9-0.4-0.9-0.9l-0.4-8l0.4-16.6c0-0.5,0.4-0.9,0.9-0.9c0.5,0,0.9,0.4,0.9,0.9l0.5,16.7L-260.8,367z M-257.4,366.1l0,0.8
		c0,0.3-0.1,0.5-0.3,0.7c-0.2,0.2-0.4,0.3-0.7,0.3c-0.3,0-0.6-0.1-0.8-0.4c-0.1-0.2-0.2-0.4-0.2-0.6c0,0,0,0,0,0c0,0-0.4-8-0.4-8
		l0.4-19.6l0-0.2c0-0.3,0.2-0.6,0.5-0.8c0.2-0.1,0.3-0.2,0.5-0.2c0.2,0,0.4,0.1,0.5,0.2c0.3,0.2,0.4,0.5,0.4,0.8l0.4,19.8
		L-257.4,366.1z M-254.1,366.8L-254.1,366.8L-254.1,366.8c0,0.6-0.5,1-1.1,1c-0.6,0-1-0.5-1.1-1l-0.2-3.9l-0.2-4l0.4-21.5l0-0.1
		c0-0.3,0.2-0.6,0.4-0.8c0.2-0.2,0.4-0.2,0.7-0.2c0.2,0,0.4,0.1,0.5,0.2c0.3,0.2,0.5,0.5,0.5,0.9l0.5,21.6L-254.1,366.8z
		 M-225.6,367.9c0,0-26.6,0-26.6,0c-0.6-0.1-1-0.5-1-1.1v-30.4c0-0.6,0.2-0.8,0.9-1.1c1.9-0.7,4-1.1,6.1-1.1
		c8.8,0,16.1,6.8,16.9,15.4c1.1-0.5,2.4-0.7,3.7-0.7c5.3,0,9.6,4.3,9.6,9.6C-216,363.6-220.3,367.9-225.6,367.9z"/>
</g>
</svg>
