<?xml version="1.0" encoding="utf-8"?>
<!-- Generator: Adobe Illustrator 19.0.0, SVG Export Plug-In . SVG Version: 6.00 Build 0)  -->
<svg version="1.1" id="Layer_1" xmlns="http://www.w3.org/2000/svg" xmlns:xlink="http://www.w3.org/1999/xlink" x="0px" y="0px"
	 viewBox="-122 123 455 455" style="enable-background:new -122 123 455 455;" xml:space="preserve">
<style type="text/css">
	.st0{fill:#000;}
</style>
<path class="st0" d="M-122,123v455h455V123H-122z M230.8,286.3c0.1,2.8,0.2,5.6,0.2,8.4c0,85.4-65,183.9-183.9,183.9
	c-36.5,0-70.5-10.7-99.1-29c5.1,0.6,10.2,0.9,15.4,0.9c30.3,0,58.1-10.3,80.3-27.7c-28.3-0.5-52.1-19.2-60.4-44.9
	c3.9,0.8,8,1.2,12.2,1.2c5.9,0,11.6-0.8,17-2.3c-29.6-5.9-51.8-32.1-51.8-63.4c0-0.3,0-0.5,0-0.8c8.7,4.8,18.7,7.7,29.3,8.1
	c-17.3-11.6-28.7-31.4-28.7-53.8c0-11.8,3.2-22.9,8.8-32.5c31.9,39.1,79.5,64.8,133.2,67.5c-1.1-4.7-1.7-9.7-1.7-14.7
	c0-35.7,28.9-64.6,64.6-64.6c18.6,0,35.4,7.8,47.2,20.4c14.7-2.9,28.6-8.3,41-15.7c-4.8,15.1-15.1,27.8-28.4,35.8
	c13.1-1.6,25.5-5,37.1-10.2C254.3,265.8,243.4,277.1,230.8,286.3z"/>
</svg>
